<mxfile host="app.diagrams.net" modified="2021-11-25T11:46:12.790Z" agent="5.0 (Windows)" etag="VPHzBuSJNAiivauEju9u" version="15.7.4" type="github">
  <diagram name="Page-1" id="c37626ed-c26b-45fb-9056-f9ebc6bb27b6">
    <mxGraphModel dx="1602" dy="1469" grid="1" gridSize="10" guides="1" tooltips="1" connect="1" arrows="1" fold="1" page="1" pageScale="1" pageWidth="1100" pageHeight="850" background="none" math="0" shadow="0">
      <root>
        <mxCell id="0" />
        <mxCell id="1" parent="0" />
        <mxCell id="1c7a67bf8fd3230f-47" value="" style="shape=mxgraph.cisco.routers.router;html=1;dashed=0;fillColor=#036897;strokeColor=#ffffff;strokeWidth=2;verticalLabelPosition=bottom;verticalAlign=top;rounded=0;shadow=0;comic=0;fontFamily=Verdana;fontSize=12;" parent="1" vertex="1">
          <mxGeometry x="1400" y="490" width="78" height="53" as="geometry" />
        </mxCell>
        <mxCell id="NdpeFAwD1ybXc1bCaLHl-2" value="" style="shape=mxgraph.cisco.routers.router;html=1;dashed=0;fillColor=#036897;strokeColor=#ffffff;strokeWidth=2;verticalLabelPosition=bottom;verticalAlign=top;rounded=0;shadow=0;comic=0;fontFamily=Verdana;fontSize=12;" vertex="1" parent="1">
          <mxGeometry x="1230" y="270" width="78" height="53" as="geometry" />
        </mxCell>
        <mxCell id="NdpeFAwD1ybXc1bCaLHl-3" value="" style="shape=mxgraph.cisco.routers.router;html=1;dashed=0;fillColor=#036897;strokeColor=#ffffff;strokeWidth=2;verticalLabelPosition=bottom;verticalAlign=top;rounded=0;shadow=0;comic=0;fontFamily=Verdana;fontSize=12;" vertex="1" parent="1">
          <mxGeometry x="1570" y="270" width="78" height="53" as="geometry" />
        </mxCell>
        <mxCell id="NdpeFAwD1ybXc1bCaLHl-4" value="" style="endArrow=none;html=1;rounded=0;entryX=0.231;entryY=0.962;entryDx=0;entryDy=0;entryPerimeter=0;exitX=0.88;exitY=0.1;exitDx=0;exitDy=0;exitPerimeter=0;" edge="1" parent="1" source="1c7a67bf8fd3230f-47" target="NdpeFAwD1ybXc1bCaLHl-3">
          <mxGeometry width="50" height="50" relative="1" as="geometry">
            <mxPoint x="1330" y="760" as="sourcePoint" />
            <mxPoint x="1380" y="710" as="targetPoint" />
          </mxGeometry>
        </mxCell>
        <mxCell id="NdpeFAwD1ybXc1bCaLHl-5" value="" style="endArrow=none;html=1;rounded=0;exitX=0.12;exitY=0.1;exitDx=0;exitDy=0;exitPerimeter=0;" edge="1" parent="1" source="1c7a67bf8fd3230f-47" target="NdpeFAwD1ybXc1bCaLHl-2">
          <mxGeometry width="50" height="50" relative="1" as="geometry">
            <mxPoint x="1330" y="760" as="sourcePoint" />
            <mxPoint x="1380" y="710" as="targetPoint" />
          </mxGeometry>
        </mxCell>
        <mxCell id="NdpeFAwD1ybXc1bCaLHl-6" value="" style="endArrow=none;html=1;rounded=0;exitX=0;exitY=0.5;exitDx=0;exitDy=0;exitPerimeter=0;entryX=1;entryY=0.5;entryDx=0;entryDy=0;entryPerimeter=0;" edge="1" parent="1" source="NdpeFAwD1ybXc1bCaLHl-3" target="NdpeFAwD1ybXc1bCaLHl-2">
          <mxGeometry width="50" height="50" relative="1" as="geometry">
            <mxPoint x="1419.3600000000001" y="505.29999999999995" as="sourcePoint" />
            <mxPoint x="1297.7099597585511" y="333" as="targetPoint" />
          </mxGeometry>
        </mxCell>
        <mxCell id="NdpeFAwD1ybXc1bCaLHl-7" value="" style="endArrow=none;html=1;rounded=0;exitX=0.5;exitY=0;exitDx=0;exitDy=0;exitPerimeter=0;entryX=0.875;entryY=0;entryDx=0;entryDy=0;entryPerimeter=0;" edge="1" parent="1" source="NdpeFAwD1ybXc1bCaLHl-3">
          <mxGeometry width="50" height="50" relative="1" as="geometry">
            <mxPoint x="1580" y="306.5" as="sourcePoint" />
            <mxPoint x="1629.875" y="200" as="targetPoint" />
          </mxGeometry>
        </mxCell>
        <mxCell id="NdpeFAwD1ybXc1bCaLHl-8" value="" style="endArrow=none;html=1;rounded=0;exitX=0.88;exitY=0.1;exitDx=0;exitDy=0;exitPerimeter=0;" edge="1" parent="1" source="NdpeFAwD1ybXc1bCaLHl-3">
          <mxGeometry width="50" height="50" relative="1" as="geometry">
            <mxPoint x="1619" y="280" as="sourcePoint" />
            <mxPoint x="1690" y="240" as="targetPoint" />
          </mxGeometry>
        </mxCell>
        <mxCell id="NdpeFAwD1ybXc1bCaLHl-9" value="" style="endArrow=none;html=1;rounded=0;exitX=0.88;exitY=0.9;exitDx=0;exitDy=0;exitPerimeter=0;" edge="1" parent="1" source="NdpeFAwD1ybXc1bCaLHl-3">
          <mxGeometry width="50" height="50" relative="1" as="geometry">
            <mxPoint x="1648.6399999999999" y="285.29999999999995" as="sourcePoint" />
            <mxPoint x="1690" y="350" as="targetPoint" />
          </mxGeometry>
        </mxCell>
        <mxCell id="NdpeFAwD1ybXc1bCaLHl-10" value="&lt;div&gt;eth0 &lt;br&gt;&lt;/div&gt;&lt;div&gt;80.0.90.5/31&lt;br&gt;&lt;/div&gt;" style="text;html=1;strokeColor=none;fillColor=none;align=center;verticalAlign=middle;whiteSpace=wrap;rounded=0;" vertex="1" parent="1">
          <mxGeometry x="1500" y="320" width="60" height="30" as="geometry" />
        </mxCell>
        <mxCell id="NdpeFAwD1ybXc1bCaLHl-11" value="&lt;div&gt;eth1&lt;br&gt;&lt;/div&gt;&lt;div&gt;80.0.90.5/31&lt;br&gt;&lt;/div&gt;" style="text;html=1;strokeColor=none;fillColor=none;align=center;verticalAlign=middle;whiteSpace=wrap;rounded=0;" vertex="1" parent="1">
          <mxGeometry x="1500" y="250" width="60" height="30" as="geometry" />
        </mxCell>
        <mxCell id="NdpeFAwD1ybXc1bCaLHl-12" value="&lt;div&gt;eth2 &lt;br&gt;&lt;/div&gt;&lt;div&gt;80.0.90.2/31&lt;br&gt;&lt;/div&gt;" style="text;html=1;strokeColor=none;fillColor=none;align=center;verticalAlign=middle;whiteSpace=wrap;rounded=0;" vertex="1" parent="1">
          <mxGeometry x="1320" y="250" width="60" height="30" as="geometry" />
        </mxCell>
        <mxCell id="NdpeFAwD1ybXc1bCaLHl-13" value="&lt;div&gt;eth1&lt;br&gt;&lt;/div&gt;&lt;div&gt;80.0.90.0/31&lt;br&gt;&lt;/div&gt;" style="text;html=1;strokeColor=none;fillColor=none;align=center;verticalAlign=middle;whiteSpace=wrap;rounded=0;" vertex="1" parent="1">
          <mxGeometry x="1320" y="320" width="60" height="30" as="geometry" />
        </mxCell>
        <mxCell id="NdpeFAwD1ybXc1bCaLHl-14" value="&lt;div&gt;eth0 &lt;br&gt;&lt;/div&gt;&lt;div&gt;80.0.90.1/31&lt;br&gt;&lt;/div&gt;" style="text;html=1;strokeColor=none;fillColor=none;align=center;verticalAlign=middle;whiteSpace=wrap;rounded=0;" vertex="1" parent="1">
          <mxGeometry x="1320" y="480" width="60" height="30" as="geometry" />
        </mxCell>
        <mxCell id="NdpeFAwD1ybXc1bCaLHl-15" value="&lt;div&gt;eth1 &lt;br&gt;&lt;/div&gt;&lt;div&gt;80.0.90.4/31&lt;br&gt;&lt;/div&gt;" style="text;html=1;strokeColor=none;fillColor=none;align=center;verticalAlign=middle;whiteSpace=wrap;rounded=0;" vertex="1" parent="1">
          <mxGeometry x="1500" y="470" width="60" height="30" as="geometry" />
        </mxCell>
        <mxCell id="NdpeFAwD1ybXc1bCaLHl-17" value="" style="endArrow=none;html=1;rounded=0;" edge="1" parent="1">
          <mxGeometry width="50" height="50" relative="1" as="geometry">
            <mxPoint x="1246" y="274" as="sourcePoint" />
            <mxPoint x="1216" y="204" as="targetPoint" />
          </mxGeometry>
        </mxCell>
        <mxCell id="NdpeFAwD1ybXc1bCaLHl-21" style="edgeStyle=orthogonalEdgeStyle;rounded=0;orthogonalLoop=1;jettySize=auto;html=1;exitX=0.5;exitY=1;exitDx=0;exitDy=0;" edge="1" parent="1" source="NdpeFAwD1ybXc1bCaLHl-13" target="NdpeFAwD1ybXc1bCaLHl-13">
          <mxGeometry relative="1" as="geometry" />
        </mxCell>
        <mxCell id="NdpeFAwD1ybXc1bCaLHl-22" style="edgeStyle=orthogonalEdgeStyle;rounded=0;orthogonalLoop=1;jettySize=auto;html=1;exitX=0.5;exitY=1;exitDx=0;exitDy=0;" edge="1" parent="1" source="NdpeFAwD1ybXc1bCaLHl-11" target="NdpeFAwD1ybXc1bCaLHl-11">
          <mxGeometry relative="1" as="geometry" />
        </mxCell>
        <mxCell id="NdpeFAwD1ybXc1bCaLHl-23" value="n5" style="text;html=1;strokeColor=none;fillColor=none;align=center;verticalAlign=middle;whiteSpace=wrap;rounded=0;" vertex="1" parent="1">
          <mxGeometry x="1240" y="323" width="60" height="30" as="geometry" />
        </mxCell>
        <mxCell id="NdpeFAwD1ybXc1bCaLHl-24" value="n6" style="text;html=1;strokeColor=none;fillColor=none;align=center;verticalAlign=middle;whiteSpace=wrap;rounded=0;" vertex="1" parent="1">
          <mxGeometry x="1409" y="540" width="60" height="30" as="geometry" />
        </mxCell>
        <mxCell id="NdpeFAwD1ybXc1bCaLHl-27" value="n3" style="text;html=1;strokeColor=none;fillColor=none;align=center;verticalAlign=middle;whiteSpace=wrap;rounded=0;" vertex="1" parent="1">
          <mxGeometry x="1579" y="320" width="60" height="30" as="geometry" />
        </mxCell>
      </root>
    </mxGraphModel>
  </diagram>
</mxfile>
